<?xml version="1.0" standalone="no"?>
<!DOCTYPE svg PUBLIC "-//W3C//DTD SVG 20010904//EN"
 "http://www.w3.org/TR/2001/REC-SVG-20010904/DTD/svg10.dtd">
<svg version="1.0" xmlns="http://www.w3.org/2000/svg"
 width="700.000000pt" height="700.000000pt" viewBox="0 0 700.000000 700.000000"
 preserveAspectRatio="xMidYMid meet">
<metadata>
Created by potrace 1.14, written by Peter Selinger 2001-2017
</metadata>
<g transform="translate(0.000000,700.000000) scale(0.100000,-0.100000)"
fill="#000000" stroke="none">
<path d="M1710 4975 c-478 -76 -885 -409 -1057 -865 -73 -191 -100 -451 -69
-659 43 -289 166 -536 376 -755 53 -55 102 -111 109 -123 6 -12 11 -71 12
-135 1 -62 4 -152 8 -200 l6 -88 170 96 c96 55 186 99 206 101 20 3 77 -4 127
-16 129 -30 229 -38 389 -30 193 10 327 43 516 128 l69 31 934 0 934 0 121
-51 c277 -116 533 -144 811 -88 547 110 967 541 1065 1093 21 121 21 333 -1
456 -49 277 -175 518 -376 721 -191 192 -397 305 -685 376 -65 16 -204 17
-1825 19 -1436 2 -1770 0 -1840 -11z m1185 -275 c112 -55 170 -147 170 -270 0
-123 -58 -215 -170 -270 -50 -25 -52 -25 -386 -28 l-336 -3 -59 -60 -58 -59
385 0 c438 0 445 -1 528 -76 63 -57 95 -127 95 -214 2 -128 6 -123 -418 -548
-209 -211 -400 -397 -423 -413 -81 -56 -121 -60 -560 -57 -382 3 -400 4 -444
24 -65 30 -123 86 -153 147 -34 67 -36 179 -5 247 26 58 81 115 144 148 l50
27 335 3 335 3 58 57 58 57 -398 5 -398 5 -53 30 c-155 85 -202 285 -101 430
42 61 769 780 809 801 84 42 98 43 530 41 l415 -2 50 -25z m2870 -18 c235
-108 239 -438 6 -546 -44 -20 -63 -21 -381 -24 l-335 -3 -58 -57 -58 -57 398
-5 c389 -5 399 -6 440 -28 111 -59 167 -149 167 -267 0 -126 -3 -130 -451
-576 -345 -343 -405 -399 -448 -415 -46 -18 -83 -19 -480 -19 -430 0 -430 0
-477 23 -231 115 -228 438 6 544 49 22 61 23 382 26 l331 3 59 60 58 59 -385
0 c-434 0 -444 1 -523 71 -67 59 -101 136 -99 224 1 128 -1 125 436 561 398
398 430 425 520 444 23 5 222 8 442 7 394 -2 401 -2 450 -25z m-1991 -626 c40
-17 72 -59 81 -109 13 -66 -17 -105 -282 -369 -204 -202 -255 -248 -288 -257
-103 -28 -200 61 -180 167 6 31 44 75 258 291 139 139 266 262 282 272 36 22
83 24 129 5z"/>
<path d="M4862 4635 c-58 -18 -106 -57 -139 -112 -36 -62 -38 -157 -6 -219 94
-177 332 -176 426 1 30 56 29 155 -1 212 -28 54 -85 100 -146 118 -59 18 -78
18 -134 0z m136 -50 c187 -79 148 -346 -53 -363 -169 -14 -267 179 -157 310
51 61 138 83 210 53z"/>
<path d="M4134 3920 c-17 -6 -51 -28 -76 -50 -165 -144 -64 -409 155 -410 100
0 177 50 217 142 65 151 -40 318 -204 325 -33 1 -75 -2 -92 -7z m190 -73 c47
-36 76 -94 76 -152 0 -60 -19 -103 -63 -142 -117 -103 -292 -35 -313 120 -9
65 31 146 89 182 36 22 51 25 108 23 54 -3 73 -9 103 -31z"/>
<path d="M5570 3918 c-50 -17 -133 -104 -148 -154 -25 -85 -4 -174 56 -237 98
-103 272 -93 359 21 115 151 15 366 -176 378 -31 2 -72 -2 -91 -8z m187 -74
c46 -36 83 -106 83 -154 -1 -48 -30 -110 -68 -142 -90 -75 -216 -57 -283 40
-36 53 -34 153 3 209 57 87 186 110 265 47z"/>
<path d="M4875 3211 c-111 -29 -178 -116 -179 -231 -1 -137 96 -234 234 -234
138 0 234 97 234 234 0 94 -44 169 -125 210 -42 22 -121 32 -164 21z m130 -60
c52 -23 102 -81 111 -126 27 -143 -88 -258 -231 -231 -43 8 -113 68 -132 113
-38 91 8 201 102 244 51 23 99 24 150 0z"/>
</g>
</svg>
